<?xml version="1.0" standalone="no"?>
<!DOCTYPE svg PUBLIC "-//W3C//DTD SVG 20010904//EN"
 "http://www.w3.org/TR/2001/REC-SVG-20010904/DTD/svg10.dtd">
<svg version="1.0" xmlns="http://www.w3.org/2000/svg"
 width="512.000000pt" height="512.000000pt" viewBox="0 0 512.000000 512.000000"
 preserveAspectRatio="xMidYMid meet">

<g transform="translate(0.000000,512.000000) scale(0.100000,-0.100000)"
fill="#000000" stroke="none">
<path d="M1980 5084 c-469 -120 -840 -321 -1163 -633 -424 -409 -682 -917
-763 -1501 -26 -184 -24 -501 4 -685 113 -738 500 -1347 1117 -1759 118 -79
379 -210 519 -261 384 -141 818 -187 1226 -130 141 20 382 81 516 130 531 196
1001 583 1291 1065 183 303 294 620 344 980 18 134 20 186 16 385 -5 242 -20
361 -71 570 -143 585 -535 1140 -1046 1482 -174 116 -428 240 -612 298 -117
37 -359 97 -366 91 -2 -3 13 -87 34 -187 l39 -181 160 -53 c335 -110 597 -266
842 -499 340 -324 559 -737 645 -1213 30 -169 33 -542 5 -693 -113 -615 -410
-1097 -888 -1441 -212 -152 -475 -274 -749 -344 -263 -68 -610 -80 -891 -30
-778 136 -1433 697 -1688 1446 -195 573 -140 1209 149 1740 141 259 364 519
595 695 296 224 690 385 1043 427 l43 5 53 -111 c57 -122 129 -250 254 -455
134 -219 147 -286 84 -414 -49 -98 -121 -189 -437 -548 -550 -623 -830 -997
-1028 -1370 -201 -381 -233 -681 -90 -840 50 -56 149 -109 253 -137 89 -23
348 -23 480 1 425 76 842 229 1216 447 55 33 113 59 127 59 16 0 44 -15 72
-40 50 -43 79 -49 124 -25 33 16 56 64 47 97 -8 33 -509 1016 -540 1060 -14
21 -37 40 -51 44 -81 20 -147 -58 -111 -132 14 -30 14 -39 2 -72 -8 -20 -17
-59 -21 -87 -24 -181 -268 -517 -481 -665 -173 -120 -338 -133 -441 -34 -39
36 -43 45 -43 87 0 49 28 134 68 207 34 61 79 124 186 258 66 83 94 111 105
106 60 -25 89 -27 126 -8 73 38 94 129 46 195 l-20 27 20 26 c19 24 22 25 42
11 12 -8 43 -15 68 -15 110 0 165 124 93 209 l-23 28 25 24 c20 19 28 21 43
12 73 -45 167 -9 190 73 11 41 0 88 -30 120 -20 21 -20 23 -4 47 l17 26 31
-20 c38 -23 87 -25 126 -5 77 40 89 151 23 209 -20 19 -20 19 77 150 224 301
241 338 248 527 4 104 2 140 -16 214 -44 183 -114 259 -375 406 -85 48 -202
150 -236 205 -11 19 -46 105 -76 192 -30 87 -61 177 -70 201 l-16 42 -176 -1
c-168 0 -184 -2 -312 -35z"/>
<path d="M4330 3162 c-33 -43 -126 -141 -163 -169 -9 -7 -41 -24 -71 -38 -48
-22 -74 -26 -193 -30 -184 -7 -246 -23 -345 -90 -25 -17 -38 -21 -38 -12 0 7
4 17 8 23 5 5 18 33 30 62 l21 53 -22 -7 c-47 -14 -73 -28 -134 -71 -17 -13
-35 -23 -39 -23 -11 0 -134 -123 -134 -134 0 -5 -8 -19 -18 -30 -21 -24 -57
-112 -70 -171 -14 -65 -14 -193 -1 -246 13 -48 22 -59 34 -39 3 6 15 10 27 10
17 0 19 4 13 23 -4 12 -9 61 -12 109 -9 150 46 281 159 383 28 25 52 44 53 43
1 -2 -1 -40 -4 -85 -9 -115 -4 -122 44 -65 48 58 126 123 186 156 53 29 106
37 261 41 147 3 214 25 311 102 63 50 67 52 67 30 0 -60 -51 -223 -90 -287
-37 -62 -109 -140 -151 -165 -70 -41 -135 -71 -202 -91 -42 -13 -82 -26 -87
-29 -15 -9 28 -72 82 -119 74 -64 188 -92 276 -67 40 12 41 1 10 -72 -46 -110
-153 -200 -282 -238 -59 -18 -86 -20 -156 -15 -47 3 -97 9 -111 12 -23 5 -27
2 -32 -23 -3 -15 -2 -31 2 -35 23 -25 214 -33 296 -14 131 32 276 140 330 246
20 39 50 136 69 222 l6 26 -53 -15 c-88 -26 -161 -36 -198 -29 -37 7 -129 61
-129 77 0 4 23 15 51 23 80 24 177 84 245 150 104 104 157 215 189 400 16 92
21 266 8 266 -5 -1 -24 -22 -43 -48z"/>
<path d="M3675 2629 c-103 -11 -186 -52 -264 -130 -72 -72 -105 -136 -127
-247 -19 -95 -15 -112 25 -112 27 0 29 3 35 54 14 111 58 206 123 268 33 31
120 81 134 76 5 -2 -9 -23 -30 -47 -63 -71 -85 -124 -83 -204 1 -38 9 -81 17
-97 20 -38 81 -98 125 -120 l35 -18 -39 -17 c-26 -11 -59 -16 -99 -13 -59 3
-61 2 -68 -26 -5 -16 -6 -33 -3 -38 9 -14 139 -9 185 7 64 23 105 53 147 110
57 75 57 75 20 64 -70 -21 -108 -21 -154 2 -63 30 -90 74 -93 149 -2 54 2 65
33 113 19 28 48 64 63 78 37 34 159 119 171 119 5 0 15 6 21 14 10 12 2 15
-51 18 -35 1 -91 0 -123 -3z"/>
</g>
</svg>
